<svg xmlns="http://www.w3.org/2000/svg" xmlns:xlink="http://www.w3.org/1999/xlink" width="500" zoomAndPan="magnify" viewBox="0 0 375 374.999991" height="500" preserveAspectRatio="xMidYMid meet" version="1.0"><defs><g/><clipPath id="fbb81c6ff6"><path d="M 48.628906 48.628906 L 326.128906 48.628906 L 326.128906 326.128906 L 48.628906 326.128906 Z M 48.628906 48.628906 " clip-rule="nonzero"/></clipPath><clipPath id="0bdaf70028"><path d="M 140.066406 140.429688 L 234.566406 140.429688 L 234.566406 234.929688 L 140.066406 234.929688 Z M 140.066406 140.429688 " clip-rule="nonzero"/></clipPath><clipPath id="0e8053f931"><path d="M 145 140.429688 L 234.566406 140.429688 L 234.566406 195 L 145 195 Z M 145 140.429688 " clip-rule="nonzero"/></clipPath><clipPath id="628dafb3f6"><path d="M 140.066406 167 L 208 167 L 208 234.929688 L 140.066406 234.929688 Z M 140.066406 167 " clip-rule="nonzero"/></clipPath><clipPath id="22f166e9cf"><path d="M 140.066406 163 L 212 163 L 212 234.929688 L 140.066406 234.929688 Z M 140.066406 163 " clip-rule="nonzero"/></clipPath></defs><g clip-path="url(#fbb81c6ff6)"><path fill="#121111" d="M 187.449219 326.363281 C 110.945312 326.363281 48.628906 264.050781 48.628906 187.449219 C 48.628906 110.851562 110.945312 48.628906 187.449219 48.628906 C 263.957031 48.628906 326.269531 110.945312 326.269531 187.449219 C 326.363281 264.050781 264.050781 326.363281 187.449219 326.363281 Z M 187.449219 50.980469 C 112.167969 50.980469 50.980469 112.167969 50.980469 187.449219 C 50.980469 262.734375 112.261719 324.015625 187.449219 324.015625 C 262.640625 324.015625 324.015625 262.734375 324.015625 187.449219 C 324.015625 112.167969 262.734375 50.980469 187.449219 50.980469 Z M 187.449219 50.980469 " fill-opacity="1" fill-rule="nonzero"/></g><g fill="#000000" fill-opacity="1"><g transform="translate(154.877593, 87.116646)"><g><path d="M 1.921875 -0.46875 L -1.5 -14.625 L 2.546875 -15.59375 C 4.222656 -16 5.828125 -16.015625 7.359375 -15.640625 C 8.179688 -15.441406 8.929688 -15.128906 9.609375 -14.703125 C 10.285156 -14.273438 10.890625 -13.671875 11.421875 -12.890625 C 11.953125 -12.109375 12.34375 -11.191406 12.59375 -10.140625 C 12.96875 -8.617188 12.90625 -7.253906 12.40625 -6.046875 C 11.476562 -3.785156 9.46875 -2.285156 6.375 -1.546875 Z M 5.765625 -2.171875 C 7.578125 -2.609375 8.898438 -3.492188 9.734375 -4.828125 C 10.578125 -6.160156 10.75 -7.859375 10.25 -9.921875 C 9.863281 -11.523438 9.097656 -12.785156 7.953125 -13.703125 C 6.804688 -14.628906 5.503906 -15.109375 4.046875 -15.140625 C 2.796875 -14.835938 1.75 -14.425781 0.90625 -13.90625 L 3.8125 -1.890625 C 4.289062 -1.878906 4.941406 -1.972656 5.765625 -2.171875 Z M 5.765625 -2.171875 "/></g></g></g><g fill="#000000" fill-opacity="1"><g transform="translate(173.424388, 83.011224)"><g><path d="M 0.21875 -0.015625 L 5.765625 -15.328125 L 6.09375 -15.359375 L 13.59375 -0.890625 L 11.1875 -0.734375 L 9.296875 -4.5625 L 2.78125 -4.140625 L 1.40625 -0.09375 Z M 3.046875 -5 L 8.890625 -5.375 L 5.515625 -12.296875 Z M 3.046875 -5 "/></g></g></g><g fill="#000000" fill-opacity="1"><g transform="translate(190.776923, 82.232692)"><g><path d="M 6.921875 0.625 L 4.796875 0.4375 L 6.015625 -13.03125 C 5.523438 -13.1875 5.035156 -13.285156 4.546875 -13.328125 L 1.53125 -12.921875 L 1.53125 -14.484375 L 12.8125 -13.46875 L 12.5625 -11.921875 L 9.65625 -12.859375 C 9.15625 -12.910156 8.648438 -12.90625 8.140625 -12.84375 Z M 6.921875 0.625 "/></g></g></g><g fill="#000000" fill-opacity="1"><g transform="translate(206.008724, 83.801627)"><g><path d="M 0.21875 0.046875 L 10.171875 -12.828125 L 10.484375 -12.75 L 13.21875 3.3125 L 10.890625 2.71875 L 10.234375 -1.515625 L 3.890625 -3.09375 L 1.359375 0.34375 Z M 4.421875 -3.84375 L 10.09375 -2.421875 L 9.015625 -10.03125 Z M 4.421875 -3.84375 "/></g></g></g><g fill="#000000" fill-opacity="1"><g transform="translate(108.304276, 275.98939)"><g><path d="M 1.578125 1.21875 L 10.46875 -10.3125 L 13.75 -7.78125 C 15.125 -6.726562 16.140625 -5.488281 16.796875 -4.0625 C 17.160156 -3.289062 17.382812 -2.507812 17.46875 -1.71875 C 17.5625 -0.925781 17.46875 -0.0820312 17.1875 0.8125 C 16.914062 1.71875 16.445312 2.601562 15.78125 3.46875 C 14.832031 4.695312 13.726562 5.5 12.46875 5.875 C 10.132812 6.570312 7.710938 5.945312 5.203125 4 Z M 5.296875 3.140625 C 6.773438 4.273438 8.296875 4.75 9.859375 4.5625 C 11.421875 4.382812 12.851562 3.453125 14.15625 1.765625 C 15.15625 0.460938 15.65625 -0.921875 15.65625 -2.390625 C 15.664062 -3.859375 15.222656 -5.175781 14.328125 -6.34375 C 13.316406 -7.125 12.34375 -7.679688 11.40625 -8.015625 L 3.859375 1.78125 C 4.148438 2.164062 4.628906 2.617188 5.296875 3.140625 Z M 5.296875 3.140625 "/></g></g></g><g fill="#000000" fill-opacity="1"><g transform="translate(125.594446, 288.538281)"><g><path d="M 1.75 0.9375 L 8.609375 -11.90625 L 16.375 -7.75 L 15.5 -6.5625 L 12.203125 -9.078125 C 11.566406 -9.421875 10.8125 -9.6875 9.9375 -9.875 L 7.421875 -5.15625 L 11.734375 -2.84375 L 11.34375 -2.109375 L 7.03125 -4.421875 L 4 1.234375 L 10.328125 3.859375 L 9.453125 5.046875 Z M 1.75 0.9375 "/></g></g></g><g fill="#000000" fill-opacity="1"><g transform="translate(141.703701, 296.646481)"><g><path d="M 6.546875 2.328125 L 4.53125 1.609375 L 9.0625 -11.125 C 8.632812 -11.394531 8.191406 -11.609375 7.734375 -11.765625 L 4.703125 -12.125 L 5.09375 -13.640625 L 15.765625 -9.84375 L 15.140625 -8.40625 L 12.5625 -10.046875 C 12.082031 -10.210938 11.585938 -10.332031 11.078125 -10.40625 Z M 6.546875 2.328125 "/></g></g></g><g fill="#000000" fill-opacity="1"><g transform="translate(158.264397, 302.126419)"><g><path d="M 1.953125 0.375 L 4.765625 -13.921875 L 13.40625 -12.21875 L 12.890625 -10.8125 L 9.015625 -12.25 C 8.316406 -12.382812 7.515625 -12.414062 6.609375 -12.34375 L 5.578125 -7.09375 L 10.375 -6.15625 L 10.21875 -5.34375 L 5.421875 -6.28125 L 4.1875 0.015625 L 11.015625 0.671875 L 10.515625 2.0625 Z M 1.953125 0.375 "/></g></g></g><g fill="#000000" fill-opacity="1"><g transform="translate(176.106399, 305.227255)"><g><path d="M 8.671875 0.578125 C 6.398438 0.492188 4.507812 -0.191406 3 -1.484375 C 1.488281 -2.773438 0.773438 -4.570312 0.859375 -6.875 C 0.898438 -8.21875 1.195312 -9.40625 1.75 -10.4375 C 2.3125 -11.476562 3.019531 -12.28125 3.875 -12.84375 C 5.601562 -14.007812 7.519531 -14.554688 9.625 -14.484375 C 10.832031 -14.441406 12.082031 -14.179688 13.375 -13.703125 L 13.109375 -12.203125 C 12.441406 -12.515625 11.914062 -12.753906 11.53125 -12.921875 C 10.457031 -13.347656 9.363281 -13.582031 8.25 -13.625 C 6.695312 -13.332031 5.484375 -12.613281 4.609375 -11.46875 C 3.742188 -10.332031 3.28125 -8.882812 3.21875 -7.125 C 3.132812 -4.96875 3.632812 -3.285156 4.71875 -2.078125 C 5.8125 -0.867188 7.28125 -0.234375 9.125 -0.171875 C 10.96875 -0.109375 12.359375 -0.457031 13.296875 -1.21875 L 13.25 -0.015625 C 11.976562 0.441406 10.453125 0.640625 8.671875 0.578125 Z M 8.671875 0.578125 "/></g></g></g><g fill="#000000" fill-opacity="1"><g transform="translate(195.727167, 305.401431)"><g><path d="M 6.90625 -0.828125 L 4.78125 -0.578125 L 3.171875 -14 C 2.648438 -14.050781 2.144531 -14.046875 1.65625 -13.984375 L -1.1875 -12.953125 L -1.515625 -14.484375 L 9.734375 -15.828125 L 9.8125 -14.265625 L 6.75 -14.609375 C 6.25 -14.546875 5.765625 -14.425781 5.296875 -14.25 Z M 6.90625 -0.828125 "/></g></g></g><g fill="#000000" fill-opacity="1"><g transform="translate(212.766859, 302.846544)"><g><path d="M 0.4375 -15.09375 L 3.890625 -0.953125 L 1.921875 -0.46875 L -1.53125 -14.609375 Z M 0.4375 -15.09375 "/></g></g></g><g fill="#000000" fill-opacity="1"><g transform="translate(223.91415, 299.993746)"><g><path d="M 6.421875 -2.09375 L -5.015625 -13.671875 L -2.765625 -14.53125 L 6.015625 -5.140625 L 5.8125 -17.828125 L 6.828125 -18.21875 L 6.765625 -2.21875 Z M 6.421875 -2.09375 "/></g></g></g><g fill="#000000" fill-opacity="1"><g transform="translate(241.339171, 292.806666)"><g><path d="M 1.71875 -0.984375 L -5.53125 -13.609375 L 2.109375 -18 L 2.65625 -16.625 L -1.21875 -15.15625 C -1.84375 -14.800781 -2.46875 -14.300781 -3.09375 -13.65625 L -0.4375 -9.03125 L 3.8125 -11.46875 L 4.21875 -10.75 L -0.03125 -8.3125 L 3.171875 -2.734375 L 8.75 -6.71875 L 9.296875 -5.328125 Z M 1.71875 -0.984375 "/></g></g></g><g fill="#000000" fill-opacity="1"><g transform="translate(256.777356, 283.452806)"><g><path d="M -4.6875 -11.640625 C -4.28125 -11.128906 -3.710938 -10.816406 -2.984375 -10.703125 C -2.253906 -10.585938 -1.472656 -10.59375 -0.640625 -10.71875 C 0.191406 -10.84375 1.023438 -10.957031 1.859375 -11.0625 C 2.691406 -11.175781 3.5 -11.140625 4.28125 -10.953125 C 5.070312 -10.773438 5.707031 -10.390625 6.1875 -9.796875 C 6.925781 -8.859375 7.1875 -7.8125 6.96875 -6.65625 C 6.75 -5.507812 6.046875 -4.46875 4.859375 -3.53125 C 3.679688 -2.59375 2.332031 -1.882812 0.8125 -1.40625 L 0.171875 -2.203125 C 1.816406 -2.554688 3.046875 -3.054688 3.859375 -3.703125 C 4.679688 -4.359375 5.164062 -5.070312 5.3125 -5.84375 C 5.457031 -6.613281 5.242188 -7.351562 4.671875 -8.0625 C 4.296875 -8.539062 3.757812 -8.828125 3.0625 -8.921875 C 2.363281 -9.023438 1.628906 -9.003906 0.859375 -8.859375 C 0.0859375 -8.722656 -0.691406 -8.597656 -1.484375 -8.484375 C -2.273438 -8.367188 -3.050781 -8.394531 -3.8125 -8.5625 C -4.570312 -8.738281 -5.21875 -9.164062 -5.75 -9.84375 C -6.289062 -10.519531 -6.488281 -11.390625 -6.34375 -12.453125 C -6.207031 -13.523438 -5.539062 -14.535156 -4.34375 -15.484375 C -3.5625 -16.097656 -2.429688 -16.707031 -0.953125 -17.3125 L -0.203125 -16 C -2.285156 -15.425781 -3.875 -14.703125 -4.96875 -13.828125 C -5.332031 -13.066406 -5.238281 -12.335938 -4.6875 -11.640625 Z M -4.6875 -11.640625 "/></g></g></g><g fill="#000000" fill-opacity="1"><g transform="translate(84.217014, 208.970052)"><g><path d="M -0.296875 -1.96875 L -14.703125 0.171875 L -16 -8.53125 L -14.515625 -8.53125 L -14.5625 -4.375 C -14.457031 -3.664062 -14.222656 -2.90625 -13.859375 -2.09375 L -8.5625 -2.875 L -9.28125 -7.71875 L -8.46875 -7.84375 L -7.75 -3 L -1.390625 -3.9375 L -3.0625 -10.59375 L -1.578125 -10.59375 Z M -0.296875 -1.96875 "/></g></g></g><g fill="#000000" fill-opacity="1"><g transform="translate(82.139342, 193.175268)"><g><path d="M -12.015625 -3.59375 C -11.367188 -3.59375 -10.769531 -3.84375 -10.21875 -4.34375 C -9.675781 -4.851562 -9.191406 -5.46875 -8.765625 -6.1875 C -8.347656 -6.914062 -7.921875 -7.640625 -7.484375 -8.359375 C -7.046875 -9.078125 -6.507812 -9.6875 -5.875 -10.1875 C -5.25 -10.695312 -4.554688 -10.953125 -3.796875 -10.953125 C -2.597656 -10.941406 -1.617188 -10.488281 -0.859375 -9.59375 C -0.0976562 -8.707031 0.28125 -7.507812 0.28125 -6 C 0.28125 -4.488281 -0.0078125 -2.992188 -0.59375 -1.515625 L -1.625 -1.515625 C -0.863281 -3.015625 -0.484375 -4.285156 -0.484375 -5.328125 C -0.484375 -6.378906 -0.738281 -7.195312 -1.25 -7.78125 C -1.769531 -8.375 -2.484375 -8.675781 -3.390625 -8.6875 C -4.003906 -8.6875 -4.566406 -8.441406 -5.078125 -7.953125 C -5.585938 -7.472656 -6.023438 -6.882812 -6.390625 -6.1875 C -6.765625 -5.5 -7.148438 -4.8125 -7.546875 -4.125 C -7.941406 -3.4375 -8.445312 -2.851562 -9.0625 -2.375 C -9.675781 -1.894531 -10.414062 -1.65625 -11.28125 -1.65625 C -12.144531 -1.65625 -12.945312 -2.039062 -13.6875 -2.8125 C -14.4375 -3.59375 -14.8125 -4.742188 -14.8125 -6.265625 C -14.8125 -7.265625 -14.578125 -8.523438 -14.109375 -10.046875 L -12.625 -9.828125 C -13.476562 -7.835938 -13.90625 -6.140625 -13.90625 -4.734375 C -13.539062 -3.972656 -12.910156 -3.59375 -12.015625 -3.59375 Z M -12.015625 -3.59375 "/></g></g></g><g fill="#000000" fill-opacity="1"><g transform="translate(82.463226, 177.362684)"><g><path d="M 1.046875 -6.875 L 0.71875 -4.765625 L -12.640625 -6.796875 C -12.828125 -6.304688 -12.957031 -5.820312 -13.03125 -5.34375 L -12.8125 -2.3125 L -14.359375 -2.40625 L -12.65625 -13.609375 L -11.140625 -13.265625 L -12.265625 -10.40625 C -12.335938 -9.90625 -12.351562 -9.40625 -12.3125 -8.90625 Z M 1.046875 -6.875 "/></g></g></g><g fill="#000000" fill-opacity="1"><g transform="translate(290.710551, 155.517701)"><g><path d="M 10.75 7.421875 C 10.019531 7.578125 9.046875 7.378906 7.828125 6.828125 C 5.765625 5.910156 3.785156 4.550781 1.890625 2.75 L 1.75 2.78125 L 3.453125 9.25 L 2.015625 9.546875 L 0.25 1.203125 L 1.296875 0.984375 C 2.503906 2.273438 4.007812 3.421875 5.8125 4.421875 C 7.625 5.429688 9.128906 5.804688 10.328125 5.546875 C 11.523438 5.296875 12.238281 4.53125 12.46875 3.25 C 12.257812 2.226562 11.8125 1.097656 11.125 -0.140625 L 12.390625 -0.84375 C 12.898438 0.0703125 13.269531 1.066406 13.5 2.140625 C 13.832031 3.742188 13.71875 4.96875 13.15625 5.8125 C 12.59375 6.664062 11.789062 7.203125 10.75 7.421875 Z M 10.75 7.421875 "/></g></g></g><g fill="#000000" fill-opacity="1"><g transform="translate(293.495277, 169.895567)"><g><path d="M 13.0625 5.03125 C 13.15625 6.320312 12.703125 7.421875 11.703125 8.328125 C 10.703125 9.242188 9.242188 9.769531 7.328125 9.90625 C 6.097656 9.988281 5.007812 9.894531 4.0625 9.625 C 3.113281 9.351562 2.367188 8.96875 1.828125 8.46875 C 0.753906 7.46875 0.171875 6.328125 0.078125 5.046875 C -0.00390625 3.765625 0.472656 2.664062 1.515625 1.75 C 2.554688 0.832031 4.035156 0.304688 5.953125 0.171875 C 7.179688 0.078125 8.257812 0.164062 9.1875 0.4375 C 10.125 0.707031 10.863281 1.097656 11.40625 1.609375 C 12.425781 2.597656 12.976562 3.738281 13.0625 5.03125 Z M 6.78125 7.890625 C 8.28125 7.785156 9.523438 7.410156 10.515625 6.765625 C 11.503906 6.128906 11.96875 5.375 11.90625 4.5 C 11.851562 3.625 11.335938 2.972656 10.359375 2.546875 C 9.390625 2.117188 8.101562 1.957031 6.5 2.0625 C 4.90625 2.175781 3.597656 2.550781 2.578125 3.1875 C 1.566406 3.820312 1.085938 4.539062 1.140625 5.34375 C 1.273438 7.300781 3.15625 8.148438 6.78125 7.890625 Z M 6.78125 7.890625 "/></g></g></g><g fill="#000000" fill-opacity="1"><g transform="translate(294.259835, 184.520673)"><g><path d="M 8.296875 10.09375 C 7.554688 10.039062 6.675781 9.585938 5.65625 8.734375 C 3.914062 7.273438 2.382812 5.421875 1.0625 3.171875 L 0.921875 3.15625 L 0.796875 9.84375 L -0.671875 9.734375 L -0.078125 1.234375 L 0.984375 1.3125 C 1.785156 2.875 2.914062 4.382812 4.375 5.84375 C 5.84375 7.3125 7.1875 8.085938 8.40625 8.171875 C 9.625 8.253906 10.519531 7.710938 11.09375 6.546875 C 11.164062 5.503906 11.039062 4.296875 10.71875 2.921875 L 12.140625 2.59375 C 12.390625 3.601562 12.472656 4.660156 12.390625 5.765625 C 12.273438 7.398438 11.828125 8.546875 11.046875 9.203125 C 10.273438 9.867188 9.359375 10.164062 8.296875 10.09375 Z M 8.296875 10.09375 "/></g></g></g><g fill="#000000" fill-opacity="1"><g transform="translate(292.989555, 199.110534)"><g><path d="M 0.03125 9.671875 C -1.332031 9.378906 -2.28125 8.628906 -2.8125 7.421875 C -3.351562 6.222656 -3.488281 5 -3.21875 3.75 C -2.957031 2.507812 -2.484375 1.28125 -1.796875 0.0625 L -0.515625 0.796875 C -1.328125 1.859375 -1.898438 2.785156 -2.234375 3.578125 C -2.429688 4.503906 -2.304688 5.34375 -1.859375 6.09375 C -1.421875 6.851562 -0.726562 7.332031 0.21875 7.53125 C 1.175781 7.738281 2.046875 7.535156 2.828125 6.921875 C 3.617188 6.304688 4.179688 5.210938 4.515625 3.640625 L 5.109375 3.71875 C 4.710938 6.445312 5.460938 8.007812 7.359375 8.40625 C 8.566406 8.664062 9.546875 8.207031 10.296875 7.03125 C 10.484375 6.144531 10.515625 5 10.390625 3.59375 L 11.84375 3.453125 C 11.925781 4.523438 11.875 5.519531 11.6875 6.4375 C 11.382812 7.820312 10.816406 8.890625 9.984375 9.640625 C 9.148438 10.390625 8.164062 10.644531 7.03125 10.40625 C 6.300781 10.25 5.695312 9.835938 5.21875 9.171875 C 4.738281 8.503906 4.4375 7.675781 4.3125 6.6875 C 3.820312 7.84375 3.179688 8.671875 2.390625 9.171875 C 1.609375 9.671875 0.820312 9.835938 0.03125 9.671875 Z M 0.03125 9.671875 "/></g></g></g><g clip-path="url(#0bdaf70028)"><path stroke-linecap="butt" transform="matrix(0, 1.332863, -1.332863, 0, 234.568172, 140.431455)" fill="none" stroke-linejoin="miter" d="M 50.401207 25.700814 C 50.401207 26.509693 50.360177 27.315641 50.281048 28.121589 C 50.201918 28.927538 50.081759 29.724694 49.926431 30.518919 C 49.768172 31.313144 49.571813 32.095647 49.337356 32.869357 C 49.102898 33.643067 48.830341 34.405054 48.519685 35.152388 C 48.209028 35.899722 47.866134 36.629471 47.48221 37.344567 C 47.101216 38.056732 46.687984 38.751313 46.236653 39.422448 C 45.788253 40.096514 45.307615 40.744203 44.794739 41.368447 C 44.278932 41.995621 43.736749 42.593488 43.165258 43.164978 C 42.593768 43.736469 41.995901 44.281583 41.368726 44.794459 C 40.744483 45.307335 40.093863 45.787973 39.422728 46.236374 C 38.748662 46.687705 38.057012 47.100936 37.344847 47.484861 C 36.629751 47.865854 35.900002 48.211679 35.152668 48.519405 C 34.405334 48.830061 33.643347 49.102618 32.869637 49.337076 C 32.095926 49.571534 31.313424 49.767892 30.519199 49.926151 C 29.724973 50.08441 28.924887 50.201639 28.121869 50.280768 C 27.315921 50.359897 26.509973 50.400928 25.701094 50.400928 C 24.892215 50.400928 24.083336 50.359897 23.280319 50.280768 C 22.474371 50.201639 21.674284 50.08441 20.880059 49.926151 C 20.088764 49.767892 19.303331 49.571534 18.529621 49.337076 C 17.75591 49.102618 16.993923 48.830061 16.246589 48.519405 C 15.499255 48.211679 14.769506 47.865854 14.057341 47.484861 C 13.342245 47.100936 12.650595 46.687705 11.976529 46.236374 C 11.305394 45.787973 10.654774 45.307335 10.030531 44.794459 C 9.406287 44.281583 8.80549 43.736469 8.233999 43.164978 C 7.662509 42.593488 7.120325 41.995621 6.607449 41.368447 C 6.094573 40.744203 5.611004 40.096514 5.162604 39.422448 C 4.714204 38.751313 4.298041 38.056732 3.917048 37.344567 C 3.536054 36.629471 3.190229 35.899722 2.879572 35.152388 C 2.571847 34.405054 2.29929 33.643067 2.064832 32.869357 C 1.827444 32.095647 1.631085 31.313144 1.475757 30.518919 C 1.317498 29.724694 1.197339 28.927538 1.118209 28.121589 C 1.03908 27.315641 1.000981 26.509693 1.000981 25.700814 C 1.000981 24.891935 1.03908 24.083056 1.118209 23.280039 C 1.197339 22.474091 1.317498 21.674004 1.475757 20.882709 C 1.631085 20.088484 1.827444 19.303051 2.064832 18.529341 C 2.29929 17.755631 2.571847 16.993643 2.879572 16.246309 C 3.190229 15.498976 3.536054 14.769226 3.917048 14.057061 C 4.298041 13.341965 4.714204 12.650315 5.162604 11.976249 C 5.611004 11.305114 6.094573 10.654494 6.607449 10.030251 C 7.120325 9.406007 7.662509 8.80521 8.233999 8.233719 C 8.80549 7.662229 9.406287 7.120045 10.030531 6.607169 C 10.654774 6.094293 11.305394 5.610724 11.976529 5.162324 C 12.650595 4.713924 13.342245 4.297761 14.057341 3.916768 C 14.769506 3.535774 15.499255 3.189949 16.246589 2.879293 C 16.993923 2.571567 17.75591 2.29901 18.529621 2.064552 C 19.303331 1.830095 20.088764 1.633736 20.880059 1.475477 C 21.674284 1.317219 22.474371 1.197059 23.280319 1.11793 C 24.083336 1.0388 24.892215 1.000701 25.701094 1.000701 C 26.509973 1.000701 27.315921 1.0388 28.121869 1.11793 C 28.924887 1.197059 29.724973 1.317219 30.519199 1.475477 C 31.313424 1.633736 32.095926 1.830095 32.869637 2.064552 C 33.643347 2.29901 34.405334 2.571567 35.152668 2.879293 C 35.900002 3.189949 36.629751 3.535774 37.344847 3.916768 C 38.057012 4.297761 38.748662 4.713924 39.422728 5.162324 C 40.093863 5.610724 40.744483 6.094293 41.368726 6.607169 C 41.995901 7.120045 42.593768 7.662229 43.165258 8.233719 C 43.736749 8.80521 44.278932 9.406007 44.794739 10.030251 C 45.307615 10.654494 45.788253 11.305114 46.236653 11.976249 C 46.687984 12.650315 47.101216 13.341965 47.48221 14.057061 C 47.866134 14.769226 48.209028 15.498976 48.519685 16.246309 C 48.830341 16.993643 49.102898 17.755631 49.337356 18.529341 C 49.571813 19.303051 49.768172 20.088484 49.926431 20.882709 C 50.081759 21.674004 50.201918 22.474091 50.281048 23.280039 C 50.360177 24.083056 50.401207 24.891935 50.401207 25.700814 Z M 50.401207 25.700814 " stroke="#000000" stroke-width="2" stroke-opacity="1" stroke-miterlimit="10"/></g><g clip-path="url(#0e8053f931)"><path stroke-linecap="butt" transform="matrix(0, 1.332863, -1.332863, 0, 234.568172, 140.431455)" fill="none" stroke-linejoin="miter" d="M 12.600773 38.90078 C 5.399992 31.699999 5.399992 19.900918 12.600773 12.700137 " stroke="#000000" stroke-width="2" stroke-opacity="1" stroke-miterlimit="10"/></g><g clip-path="url(#628dafb3f6)"><path stroke-linecap="butt" transform="matrix(0, 1.332863, -1.332863, 0, 234.568172, 140.431455)" fill="none" stroke-linejoin="miter" d="M 68.398763 68.401414 C 66.300367 70.49981 62.900731 70.49981 60.799404 68.401414 L 50.401207 58.000286 C 48.299881 55.898959 48.299881 52.499324 50.401207 50.400928 C 52.499603 48.299601 55.899239 48.299601 58.000566 50.400928 L 68.398763 60.799124 C 70.500089 62.900451 70.500089 66.300087 68.398763 68.401414 Z M 68.398763 68.401414 " stroke="#000000" stroke-width="2" stroke-opacity="1" stroke-miterlimit="10"/></g><g clip-path="url(#22f166e9cf)"><path stroke-linecap="butt" transform="matrix(0, 1.332863, -1.332863, 0, 234.568172, 140.431455)" fill="none" stroke-linejoin="miter" d="M 50.401207 50.400928 L 45.899621 45.899341 " stroke="#000000" stroke-width="2" stroke-opacity="1" stroke-miterlimit="10"/></g></svg>